<?xml version="1.0" encoding="utf-8"?><svg viewBox="0 0 37 27" xmlns="http://www.w3.org/2000/svg" xmlns:xlink="http://www.w3.org/1999/xlink"><style>:root>svg{display:none}:root>svg:target{display:block}</style><svg viewBox="0 0 11 16" id="icon-arrow-left" xmlns="http://www.w3.org/2000/svg"><path d="m8.475 15.5 1.762-1.762L4.512 8l5.725-5.737L8.475.5.975 8l7.5 7.5Z" fill="currentColor"/></svg><svg viewBox="0 0 11 16" id="icon-arrow-right" xmlns="http://www.w3.org/2000/svg"><path d="M2.525.5.763 2.263 6.488 8 .763 13.738 2.525 15.5l7.5-7.5-7.5-7.5Z" fill="currentColor"/></svg><svg viewBox="0 0 20 20" id="icon-cross" xmlns="http://www.w3.org/2000/svg"><path d="M19.324 3.94 13.264 10l6.06 6.06a2.308 2.308 0 0 1-3.263 3.264L10 13.264l-6.06 6.06A2.3 2.3 0 0 1 2.307 20a2.308 2.308 0 0 1-1.631-3.94L6.736 10 .675 3.94A2.308 2.308 0 0 1 3.939.675L10 6.736l6.06-6.06a2.308 2.308 0 0 1 3.264 3.263Z" fill="currentColor"/></svg><svg fill="none" viewBox="0 0 24 24" id="icon-instagram" xmlns="http://www.w3.org/2000/svg"><path d="M12 8.096a3.914 3.914 0 0 0-3.905 3.906A3.914 3.914 0 0 0 12 15.907a3.914 3.914 0 0 0 3.905-3.905A3.914 3.914 0 0 0 12 8.096Zm11.713 3.906c0-1.618.014-3.22-.076-4.834-.091-1.875-.519-3.54-1.89-4.91-1.374-1.375-3.035-1.8-4.91-1.89-1.617-.091-3.22-.076-4.834-.076-1.617 0-3.22-.015-4.834.076-1.875.09-3.54.518-4.91 1.89C.885 3.63.459 5.292.369 7.167c-.09 1.617-.076 3.22-.076 4.834 0 1.614-.015 3.22.076 4.834.09 1.875.519 3.539 1.89 4.91 1.374 1.374 3.035 1.799 4.91 1.89 1.617.09 3.22.076 4.834.076 1.617 0 3.22.014 4.834-.077 1.875-.09 3.539-.518 4.91-1.89 1.374-1.373 1.799-3.034 1.89-4.91.093-1.614.076-3.216.076-4.833ZM12 18.01a6 6 0 0 1-6.009-6.008A6 6 0 0 1 12 5.992a6 6 0 0 1 6.009 6.01 6 6 0 0 1-6.01 6.008Zm6.255-10.86a1.402 1.402 0 0 1-1.403-1.403c0-.777.626-1.404 1.403-1.404a1.402 1.402 0 0 1 .993 2.397 1.403 1.403 0 0 1-.993.41Z" fill="#232323"/></svg><svg fill="none" viewBox="0 0 24 24" id="icon-instagram-light" xmlns="http://www.w3.org/2000/svg"><path d="M12 8.094A3.914 3.914 0 0 0 8.095 12 3.914 3.914 0 0 0 12 15.905 3.914 3.914 0 0 0 15.905 12 3.914 3.914 0 0 0 12 8.094ZM23.713 12c0-1.617.014-3.22-.076-4.834-.091-1.875-.519-3.54-1.89-4.91-1.374-1.375-3.035-1.8-4.91-1.89C15.22.275 13.617.29 12.003.29c-1.617 0-3.22-.015-4.834.076-1.875.09-3.54.518-4.91 1.89C.885 3.63.459 5.29.369 7.166.279 8.783.293 10.386.293 12c0 1.614-.015 3.22.076 4.834.09 1.875.519 3.539 1.89 4.91 1.374 1.374 3.035 1.799 4.91 1.89 1.617.09 3.22.076 4.834.076 1.617 0 3.22.014 4.834-.077 1.875-.09 3.539-.518 4.91-1.89 1.374-1.373 1.799-3.034 1.89-4.91.093-1.614.076-3.216.076-4.833ZM12 18.008A6 6 0 0 1 5.99 12 6 6 0 0 1 12 5.99 6 6 0 0 1 18.009 12a6 6 0 0 1-6.01 6.008Zm6.255-10.86a1.402 1.402 0 0 1-1.403-1.403c0-.777.626-1.404 1.403-1.404a1.402 1.402 0 0 1 .993 2.397 1.403 1.403 0 0 1-.993.41Z" fill="#fff"/></svg><svg viewBox="0 0 17 17" id="icon-phone" xmlns="http://www.w3.org/2000/svg"><path d="M16.056 11.806a10.75 10.75 0 0 1-3.372-.539.948.948 0 0 0-.959.232L9.648 13.58a14.223 14.223 0 0 1-6.224-6.219L5.5 5.275a.948.948 0 0 0 .232-.959A10.752 10.752 0 0 1 5.194.944.941.941 0 0 0 4.25 0H.944A.944.944 0 0 0 0 .944C0 9.813 7.187 17 16.056 17a.94.94 0 0 0 .944-.944V12.75a.941.941 0 0 0-.944-.944Z" fill="currentColor"/></svg><svg fill="none" viewBox="0 0 27 27" id="icon-spectr" xmlns="http://www.w3.org/2000/svg"><circle cx="13.5" cy="13.5" r="7.5" fill="currentColor"/><circle cx="13.5" cy="13.5" r="12.5" stroke="currentColor" stroke-width="2"/></svg><svg fill="none" viewBox="0 0 21 25" id="icon-tiktok" xmlns="http://www.w3.org/2000/svg"><path d="M20.656 7.58v3.633c-.195 0-.43.039-.664.039a7.242 7.242 0 0 1-4.648-1.719v7.735a6.936 6.936 0 0 1-1.406 4.218A6.97 6.97 0 0 1 8.351 24.3a6.943 6.943 0 0 1-5.899-3.281c1.25 1.171 2.93 1.914 4.766 1.914a6.843 6.843 0 0 0 5.547-2.813c.859-1.172 1.406-2.617 1.406-4.219V8.127c1.25 1.094 2.851 1.719 4.648 1.719.235 0 .43 0 .664-.04V7.464c.352.078.664.117 1.016.117h.156Z" fill="#FF004F"/><path d="M9.328 10.275V14.3a3.255 3.255 0 0 0-.86-.117c-1.718 0-3.124 1.445-3.124 3.203 0 .39.078.742.195 1.093-.781-.585-1.328-1.523-1.328-2.578 0-1.757 1.406-3.203 3.125-3.203.312 0 .586.04.86.118v-2.579h.234c.312 0 .625 0 .898.04ZM15.93 4.69c-.703-.626-1.211-1.485-1.485-2.383h.938v.547a6.17 6.17 0 0 0 .547 1.835Z" fill="#FF004F"/><path d="M19.523 7.502v2.344c-.195.039-.43.039-.664.039a7.243 7.243 0 0 1-4.648-1.719V15.9a6.936 6.936 0 0 1-1.406 4.22c-1.29 1.718-3.282 2.812-5.547 2.812-1.836 0-3.516-.742-4.766-1.914a7.085 7.085 0 0 1-1.054-3.711c0-3.79 3.007-6.875 6.757-6.992v2.578a3.255 3.255 0 0 0-.86-.118c-1.718 0-3.124 1.446-3.124 3.204 0 1.054.508 2.03 1.328 2.578.43 1.21 1.602 2.109 2.93 2.109 1.719 0 3.125-1.445 3.125-3.203V2.307h2.851a5.056 5.056 0 0 0 1.485 2.382 5.358 5.358 0 0 0 3.593 2.813Z" fill="#000"/><path d="M8.195 8.908v1.328c-3.75.117-6.758 3.204-6.758 6.992 0 1.368.391 2.618 1.055 3.711a7.07 7.07 0 0 1-2.148-5.117c0-3.867 3.125-6.992 6.953-6.992.312 0 .625.04.898.078Z" fill="#00F7EF"/><path d="M14.445 2.307h-2.851v15.078c0 1.758-1.406 3.203-3.125 3.203-1.367 0-2.5-.86-2.93-2.11a3.18 3.18 0 0 0 1.797.586c1.719 0 3.125-1.406 3.125-3.164V.783h3.789v.078c0 .157 0 .313.04.47 0 .312.077.663.155.976Zm5.078 3.75v1.406c-1.562-.313-2.89-1.367-3.632-2.774a5.074 5.074 0 0 0 3.632 1.368Z" fill="#00F7EF"/></svg><svg fill="none" viewBox="0 0 21 25" id="icon-tiktok-light" xmlns="http://www.w3.org/2000/svg"><path d="M20.656 7.578v3.633c-.195 0-.43.039-.664.039a7.242 7.242 0 0 1-4.648-1.719v7.735a6.937 6.937 0 0 1-1.406 4.218 6.97 6.97 0 0 1-5.586 2.813 6.943 6.943 0 0 1-5.899-3.281c1.25 1.172 2.93 1.914 4.766 1.914a6.844 6.844 0 0 0 5.547-2.813c.859-1.172 1.406-2.617 1.406-4.219V8.125c1.25 1.094 2.851 1.719 4.648 1.719.235 0 .43 0 .664-.04V7.462c.352.078.664.117 1.016.117h.156Z" fill="#fff"/><path d="M9.328 10.273v4.024a3.25 3.25 0 0 0-.86-.117c-1.718 0-3.124 1.445-3.124 3.203 0 .39.078.742.195 1.094-.781-.586-1.328-1.524-1.328-2.579 0-1.757 1.406-3.203 3.125-3.203.312 0 .586.04.86.117v-2.578h.234c.312 0 .625 0 .898.04Zm6.602-5.585c-.703-.625-1.211-1.485-1.485-2.383h.938v.547c.078.625.273 1.25.547 1.836Z" fill="#fff"/><path d="M19.523 7.5v2.344c-.195.039-.43.039-.664.039a7.243 7.243 0 0 1-4.648-1.719v7.734a6.937 6.937 0 0 1-1.406 4.22c-1.29 1.718-3.282 2.812-5.547 2.812-1.836 0-3.516-.742-4.766-1.914a7.085 7.085 0 0 1-1.054-3.711c0-3.79 3.007-6.875 6.757-6.992v2.578a3.255 3.255 0 0 0-.86-.118c-1.718 0-3.124 1.446-3.124 3.204 0 1.054.508 2.03 1.328 2.578.43 1.21 1.602 2.11 2.93 2.11 1.719 0 3.125-1.446 3.125-3.204V2.305h2.851a5.056 5.056 0 0 0 1.485 2.382A5.358 5.358 0 0 0 19.523 7.5Z" fill="#fff"/><path d="M8.195 8.906v1.328c-3.75.118-6.758 3.204-6.758 6.993 0 1.367.391 2.617 1.055 3.71A7.071 7.071 0 0 1 .344 15.82c0-3.867 3.125-6.992 6.953-6.992.312 0 .625.04.898.078Z" fill="#fff"/><path d="M14.445 2.305h-2.851v15.078c0 1.758-1.406 3.203-3.125 3.203-1.367 0-2.5-.86-2.93-2.11.508.352 1.133.587 1.797.587 1.719 0 3.125-1.407 3.125-3.165V.781h3.789V.86c0 .157 0 .313.04.47 0 .312.077.663.155.976Zm5.078 3.75V7.46c-1.562-.313-2.89-1.367-3.632-2.774a5.074 5.074 0 0 0 3.632 1.368Z" fill="#fff"/></svg><svg fill="none" viewBox="0 0 37 23" id="icon-up" xmlns="http://www.w3.org/2000/svg"><path d="m4.395 21.933 13.943-14.97 14.038 15.072c.22.238.483.428.772.557a2.23 2.23 0 0 0 1.823 0 2.37 2.37 0 0 0 .772-.557 2.59 2.59 0 0 0 .52-.829 2.71 2.71 0 0 0 0-1.958 2.564 2.564 0 0 0-.52-.829L20.021 1.541a2.369 2.369 0 0 0-.771-.558 2.231 2.231 0 0 0-1.824 0 2.37 2.37 0 0 0-.772.558L15.09 3.348 1.146 18.318a2.564 2.564 0 0 0-.52.828 2.71 2.71 0 0 0 0 1.958c.121.31.298.592.52.829.44.444 1.02.69 1.624.69.604 0 1.185-.246 1.625-.69Z" fill="currentColor"/></svg></svg>